PathFileType	4	(X/Y/Z)	./resultDataOpenSim/trcMotMarkerGrf/sub09/qtm-02-07.trc
DataRate	CameraRate	NumFrames	NumMarkers	Units	OrigDataRate	OrigDataStartFrame	OrigNumFrames
250.000000	250.000000	9	24	m	250.000000	243	485
Frame#	Time	L.Toe.Tip			R.Toe.Tip			L.Ankle.Lat			R.Ankle.Lat			L.Ankle.Med			R.Ankle.Med			L.Heel			R.Heel			L.Knee.Lat			R.Knee.Lat			L.Knee.Med			R.Knee.Med			L.Thigh.Upper			R.Thigh.Upper			L.ASIS			R.ASIS			V.Sacral			L.Acromium			R.Acromium			C7			L.Elbow			R.Elbow			L.Wrist.Lat			R.Wrist.Lat
		X1	Y1	Z1	X2	Y2	Z2	X3	Y3	Z3	X4	Y4	Z4	X5	Y5	Z5	X6	Y6	Z6	X7	Y7	Z7	X8	Y8	Z8	X9	Y9	Z9	X10	Y10	Z10	X11	Y11	Z11	X12	Y12	Z12	X13	Y13	Z13	X14	Y14	Z14	X15	Y15	Z15	X16	Y16	Z16	X17	Y17	Z17	X18	Y18	Z18	X19	Y19	Z19	X20	Y20	Z20	X21	Y21	Z21	X22	Y22	Z22	X23	Y23	Z23	X24	Y24	Z24

243	0.968	0.17345439	0.014574502	0.0053315635	0.42795474	0.096529696	0.12635802	0.026231414	0.057834788	-0.037859744	0.28235626	0.11889445	0.1427858	0.050005789	0.078425141	0.056677097	0.30589275	0.15081456	0.050568922	-0.046628833	0.030799596	0.0074944821	0.21786118	0.096111227	0.087189475	0.13073638	0.46010649	-0.099051925	0.40643095	0.55512362	0.17742608	0.13168724	0.46327672	0.026524689	0.40510989	0.53839749	0.052883007	0.17526551	0.88171072	-0.15847406	0.18082887	0.89460562	0.21211489	0.2661815	0.96439201	-0.099139814	0.25679591	0.97820236	0.1398751	0.099063251	1.0288513	0.017953994	0.26889587	1.4285766	-0.13922168	0.21364942	1.4355279	0.18502356	0.17440702	1.4783569	0.012353297	0.16970852	1.0661208	-0.2089393	0.04504325	1.1183953	0.24781279	0.40449174	0.92586331	-0.20713352	0.11034848	0.86776464	0.32736409
244	0.972	0.1733638	0.014594403	0.005314045	0.44781997	0.096666119	0.12573933	0.026126659	0.058300342	-0.037354487	0.30149788	0.11566306	0.14227236	0.050396489	0.078858025	0.057016516	0.32442425	0.1482923	0.050168514	-0.046534132	0.031467808	0.0082711161	0.23782257	0.09151128	0.086539843	0.13138438	0.46041278	-0.099117384	0.41422746	0.55575926	0.1773851	0.13297226	0.46359387	0.026358047	0.4127019	0.53870126	0.053003233	0.18039991	0.88139986	-0.15834101	0.18707226	0.89414974	0.21225459	0.27200014	0.96383154	-0.099338014	0.26295475	0.97776738	0.13976019	0.10465638	1.0283954	0.017161615	0.27499837	1.4281451	-0.13917184	0.21993395	1.4349297	0.18512193	0.18058829	1.4778589	0.012456372	0.17717389	1.0650403	-0.20894407	0.050830106	1.1183031	0.24752448	0.41420082	0.92821209	-0.206291	0.11413621	0.86759267	0.32834587
245	0.976	0.17333069	0.014609791	0.0052634203	0.46763395	0.096943446	0.12519013	0.026012673	0.05878911	-0.036832593	0.32054283	0.11265699	0.14178207	0.050800526	0.079295103	0.057343336	0.3430141	0.14591743	0.049740175	-0.046432234	0.032165182	0.0090210358	0.25772977	0.087178962	0.0859703	0.13210109	0.46072832	-0.099208802	0.421839	0.55626059	0.17736927	0.13437193	0.46390292	0.026110791	0.42023963	0.53885003	0.053109963	0.1855665	0.8810218	-0.15824589	0.19331644	0.89363947	0.21240739	0.27792808	0.963244	-0.099479484	0.26913498	0.97726156	0.13967205	0.11012379	1.0278664	0.016066382	0.28110073	1.4276598	-0.13911368	0.22623106	1.4342838	0.18522169	0.18677822	1.4772941	0.012564225	0.18472012	1.0638928	-0.20898494	0.056627718	1.1181385	0.24717756	0.42384076	0.93050406	-0.20546956	0.11803555	0.86739576	0.32932898
246	0.98	0.17338213	0.014615325	0.0051665168	0.48739517	0.097351342	0.12471165	0.025910939	0.059301504	-0.036341719	0.33963428	0.10986285	0.14127853	0.051244363	0.079747382	0.05761965	0.36165991	0.14370888	0.049262887	-0.046334981	0.032879319	0.0097629042	0.27764531	0.083088611	0.085405388	0.13290971	0.46105131	-0.0993233	0.42925819	0.55660932	0.17738164	0.13595568	0.46420562	0.025757114	0.42772424	0.53886213	0.053179585	0.19084907	0.88059235	-0.15825068	0.19955359	0.89306975	0.21257295	0.28393711	0.96262935	-0.099569048	0.27533425	0.97668458	0.13960779	0.11560456	1.027238	0.015066202	0.28720613	1.4271236	-0.13904474	0.23253301	1.4335884	0.18532752	0.19298012	1.4766678	0.012662713	0.19233725	1.0626895	-0.20904595	0.062448029	1.1179067	0.24682826	0.43341587	0.93273804	-0.20466082	0.12203052	0.86717002	0.33030193
247	0.984	0.17346112	0.014622257	0.0050396812	0.50711	0.097871493	0.12431288	0.025825027	0.059833844	-0.035899766	0.3588002	0.10727987	0.14074209	0.051784859	0.080224182	0.057793111	0.38034935	0.14168122	0.048732685	-0.04625568	0.033602498	0.01053427	0.29764445	0.079207854	0.084752919	0.13381521	0.46136878	-0.099453679	0.43646878	0.55677753	0.17740782	0.13768383	0.46450543	0.025331681	0.43513408	0.53875234	0.053244133	0.19627489	0.88012133	-0.15836753	0.20577956	0.89243557	0.21275106	0.28995783	0.96196895	-0.099636924	0.28155421	0.97603662	0.13956556	0.12123772	1.0265148	0.01446305	0.29331687	1.4265374	-0.13896381	0.23883915	1.4328446	0.18544212	0.19919411	1.4759884	0.012749052	0.19999991	1.061445	-0.20909872	0.068310662	1.1176141	0.24655443	0.44293935	0.9349098	-0.20385598	0.12614336	0.86690348	0.33126714
248	0.988	0.17350651	0.014633759	0.0049215755	0.52677265	0.098496165	0.12400646	0.025754334	0.060385298	-0.035505607	0.37799251	0.10491168	0.14017484	0.052455721	0.08072274	0.057843285	0.39905984	0.13984074	0.048169904	-0.046198435	0.034342848	0.011340507	0.31773171	0.075534919	0.083970755	0.13481073	0.46166678	-0.099595129	0.44348601	0.55676134	0.17744471	0.13929702	0.46480279	0.024993475	0.44243615	0.5385285	0.053344996	0.20173241	0.87960353	-0.15849999	0.21198976	0.89173215	0.21293535	0.29594279	0.961245	-0.099709645	0.2877994	0.97531844	0.13954538	0.12709788	1.0257304	0.01434832	0.29943384	1.4258975	-0.1388738	0.24516017	1.4320559	0.18556388	0.20541648	1.4752525	0.012840538	0.20769256	1.0601677	-0.20912811	0.074225566	1.1172638	0.246382	0.45242	0.93701462	-0.20305707	0.13041273	0.86658605	0.33223161
249	0.992	0.17350383	0.014640595	0.004845452	0.54634018	0.099240001	0.12379005	0.025705214	0.060955914	-0.035161472	0.39715131	0.10276508	0.13959253	0.053183272	0.081227167	0.057826617	0.41776321	0.13819111	0.047600008	-0.046151337	0.035117306	0.012109267	0.3379134	0.072090916	0.083033122	0.13589769	0.46193843	-0.099746583	0.45034951	0.55657983	0.17750006	0.14051727	0.46508934	0.024912286	0.44964588	0.53818879	0.05347737	0.20706444	0.8790255	-0.15851048	0.21818371	0.89095717	0.21311934	0.30188281	0.96044946	-0.099796709	0.29407227	0.97452977	0.13954413	0.13316634	1.0249084	0.014620716	0.30555659	1.4252013	-0.1387799	0.25150257	1.4312248	0.18568652	0.21164807	1.4744568	0.012957589	0.2154117	1.0588601	-0.20913493	0.080186355	1.1168572	0.24628267	0.46185709	0.93904878	-0.2022716	0.13483834	0.86621643	0.33319439
250	0.996	0.17347085	0.014635371	0.0048058958	0.56575291	0.10012942	0.12363654	0.025690382	0.061544675	-0.034879807	0.4162341	0.10085214	0.13901352	0.053831316	0.081721884	0.057829929	0.43643384	0.13673911	0.047031335	-0.046094409	0.035935492	0.0127423	0.35823869	0.068905827	0.081915497	0.13711313	0.46218095	-0.099919316	0.45708783	0.55624524	0.17757348	0.14147427	0.46535309	0.025033069	0.45689479	0.53772179	0.053556619	0.21222252	0.87837833	-0.15835171	0.22437331	0.89011477	0.2133056	0.3077833	0.95958012	-0.099897329	0.30036796	0.97366719	0.1395517	0.13934987	1.0240494	0.015051653	0.31168719	1.4244523	-0.13868445	0.25785437	1.4303528	0.18580611	0.21789787	1.4736079	0.013101201	0.22315717	1.057523	-0.2091271	0.086177636	1.1163947	0.24622312	0.47124567	0.94100994	-0.20150251	0.13937196	0.86579879	0.33414429
251	1	0.17343527	0.014617545	0.0047671905	0.58498414	0.10117719	0.12350465	0.025723305	0.062151947	-0.034676511	0.43522184	0.099179666	0.13843953	0.05434193	0.082208199	0.057881789	0.45504743	0.13549299	0.046456384	-0.046015586	0.036793429	0.013208659	0.37871154	0.066010318	0.080635947	0.13854315	0.46239243	-0.1001448	0.46372689	0.55576744	0.177666	0.14265223	0.46558976	0.025103314	0.46440952	0.53711594	0.053436362	0.21727127	0.87766332	-0.15809099	0.23056424	0.88920839	0.21349573	0.313652	0.95863857	-0.10000651	0.30667596	0.97272639	0.13955622	0.14555132	1.0231455	0.015438228	0.31783261	1.4236543	-0.13858433	0.26419519	1.4294407	0.18592673	0.22417033	1.472711	0.013254012	0.2309278	1.0561545	-0.20910705	0.092185219	1.1158759	0.24618763	0.48057871	0.94289695	-0.20075236	0.14396572	0.86533722	0.33506571
